<?xml version="1.0" ?><svg viewBox="0 0 550 550" xmlns="http://www.w3.org/2000/svg"><defs><style>.cls-1{fill:#0161a2;}</style></defs><title/><g data-name="Layer 36" id="Layer_36"><path class="cls-1" d="M39,511.19H525V49.61H39ZM45.32,56H518.66V504.84H45.32Z"/><path class="cls-1" d="M62.17,488.48h440v-416h-440ZM277.77,159h38.74l24.4,122.75L365.3,159H404V343.82h-27.7V220.69L351.51,343.82H329L305.57,221.3l0,122.52H277.77V159ZM163.62,263.68v-48.6c0-49.87,22.91-60.47,48.71-60.47,24.55,0,48.18,7.78,49.49,40.53v22.17H233.17l.09-14.39c-.87-16.61-5.52-20.43-20.93-21.2-22.44,0-19.29,32.18-19.29,46V277.6c-.25,23.45-.29,40.34,19.29,40.34,11.29,0,20.73-3.2,20.73-20.68l.06-33.42H213.29V237.46h47.58V344H233.41l.05-11.22c-5.88,8.52-20.68,12.95-28.17,13.64C158.3,346.46,164,316.05,163.62,263.68Zm-.87,91.7H404v50.45H162.75Z"/></g></svg>